<?xml version="1.0" standalone="no"?>
<!DOCTYPE svg PUBLIC "-//W3C//DTD SVG 20010904//EN"
 "http://www.w3.org/TR/2001/REC-SVG-20010904/DTD/svg10.dtd">
<svg version="1.0" xmlns="http://www.w3.org/2000/svg"
 width="700.000000pt" height="700.000000pt" viewBox="0 0 700.000000 700.000000"
 preserveAspectRatio="xMidYMid meet">
<metadata>
Created by potrace 1.14, written by Peter Selinger 2001-2017
</metadata>
<g transform="translate(0.000000,700.000000) scale(0.100000,-0.100000)"
fill="#000000" stroke="none">
<path d="M3378 6415 c-2 -1 -48 -5 -103 -9 -129 -8 -164 -13 -315 -42 -151
-29 -142 -26 -271 -64 -57 -17 -111 -33 -119 -35 -8 -2 -73 -27 -145 -56 -563
-226 -1045 -623 -1376 -1134 -89 -137 -143 -239 -234 -441 -61 -134 -148 -414
-174 -559 -6 -33 -13 -71 -16 -85 -28 -159 -39 -293 -39 -490 0 -225 11 -345
49 -542 204 -1066 977 -1924 2025 -2250 178 -55 406 -99 600 -115 148 -12 562
-4 589 11 3 2 35 7 70 10 36 4 67 8 70 10 3 2 26 7 51 10 25 3 91 18 145 32
55 14 107 27 115 29 36 8 213 70 304 107 131 54 410 196 426 217 3 4 30 22 60
40 50 31 82 54 175 124 448 338 807 835 990 1366 36 105 90 294 99 346 3 17
12 68 20 115 29 157 38 276 39 475 1 149 -6 292 -19 375 -54 367 -122 595
-270 905 -219 460 -581 876 -1009 1159 -419 278 -852 431 -1355 481 -65 7
-376 15 -382 10z m297 -590 c88 -5 186 -17 235 -29 14 -3 36 -8 50 -10 220
-36 509 -149 750 -292 280 -167 592 -475 768 -761 195 -314 309 -654 347
-1033 7 -69 7 -327 0 -395 -7 -69 -17 -149 -21 -170 -2 -11 -7 -35 -10 -54 -3
-18 -8 -43 -10 -55 -3 -11 -7 -32 -10 -46 -3 -14 -12 -50 -20 -80 -9 -30 -18
-62 -19 -70 -5 -21 -49 -146 -73 -207 -68 -169 -180 -366 -305 -533 -78 -104
-284 -317 -387 -399 -36 -29 -72 -58 -81 -65 -82 -66 -267 -174 -448 -261
-134 -64 -432 -150 -607 -174 -754 -105 -1490 150 -2019 700 -50 52 -104 112
-120 134 -17 22 -35 46 -42 53 -29 31 -126 177 -182 275 -142 247 -256 589
-286 857 -3 30 -8 73 -11 95 -5 46 -5 336 0 380 2 17 7 62 11 100 11 111 53
297 96 429 119 368 295 653 574 931 228 229 447 378 731 500 106 46 305 112
364 121 19 3 38 8 41 10 3 2 19 6 35 8 16 3 39 8 51 10 21 4 74 12 143 22 19
2 80 7 135 10 55 4 101 7 102 8 3 3 105 -1 218 -9z"/>
<path d="M3210 4082 l1 -877 196 -120 c219 -133 361 -221 563 -345 74 -46 180
-111 235 -145 55 -34 194 -119 308 -189 118 -73 212 -125 217 -120 10 11 230
368 227 370 -9 6 -586 351 -600 359 -10 6 -174 104 -365 218 l-347 209 0 756
0 757 -217 2 -218 2 0 -877z"/>
</g>
</svg>
